<svg xmlns="http://www.w3.org/2000/svg" viewBox="0 0 1200 750" aria-hidden="true" focusable="false">
  <rect width="1200" height="750" fill="#181b1f"/>
  <rect x="42" y="42" width="1116" height="666" fill="#20252a" stroke="#596067" stroke-width="2"/>
  <path d="M42 102h1116" stroke="#596067" stroke-width="2"/>
  <rect x="75" y="60" width="242" height="22" fill="#30363b"/><rect x="1080" y="62" width="38" height="18" fill="#ca7165"/>
  <rect x="78" y="138" width="292" height="494" fill="#181c20" stroke="#454b51"/>
  <rect x="402" y="138" width="720" height="494" fill="#181c20" stroke="#454b51"/>
  <g fill="#30363b"><rect x="104" y="170" width="238" height="42"/><rect x="104" y="230" width="238" height="42"/><rect x="104" y="290" width="238" height="42"/><rect x="104" y="350" width="238" height="42"/><rect x="104" y="410" width="238" height="42"/></g>
  <rect x="104" y="230" width="7" height="42" fill="#6ba7ad"/>
  <path d="M472 534V236h84v298zm134 0V316h84v218zm134 0V194h84v340zm134 0V374h84v160z" fill="#30363b"/>
  <path d="M472 534V356h84v178zm268 0V282h84v252z" fill="#ca7165" opacity=".78"/>
  <path d="M606 534V402h84v132zm268 0V432h84v102z" fill="#6ba7ad" opacity=".78"/>
  <path d="M442 534h620" stroke="#e8e2d8" stroke-width="3"/>
  <rect x="398" y="658" width="404" height="30" fill="#181b1f"/>
  <text x="600" y="679" text-anchor="middle" fill="#e8e2d8" font-family="ui-monospace, monospace" font-size="14" letter-spacing="2">PROJECT SCREENSHOT PLACEHOLDER / 05</text>
</svg>
