<svg xmlns="http://www.w3.org/2000/svg" viewBox="0 0 1200 750" aria-hidden="true" focusable="false">
  <rect width="1200" height="750" fill="#181b1f"/>
  <rect x="42" y="42" width="1116" height="666" fill="#22272c" stroke="#596067" stroke-width="2"/>
  <path d="M42 102h1116" stroke="#596067" stroke-width="2"/>
  <rect x="74" y="61" width="198" height="20" fill="#343a40"/><rect x="962" y="60" width="76" height="22" fill="#343a40"/><rect x="1054" y="60" width="72" height="22" fill="#ca7165"/>
  <rect x="76" y="136" width="1048" height="80" fill="#1a1e22" stroke="#454b51"/>
  <rect x="104" y="162" width="302" height="16" fill="#e8e2d8" opacity=".84"/><rect x="104" y="188" width="214" height="10" fill="#8f918f"/>
  <g>
    <rect x="76" y="246" width="1048" height="104" fill="#1a1e22" stroke="#454b51"/><rect x="76" y="374" width="1048" height="104" fill="#1a1e22" stroke="#454b51"/><rect x="76" y="502" width="1048" height="104" fill="#1a1e22" stroke="#454b51"/>
    <rect x="102" y="270" width="56" height="56" fill="#6ba7ad"/><rect x="102" y="398" width="56" height="56" fill="#ca7165"/><rect x="102" y="526" width="56" height="56" fill="#e8e2d8"/>
    <g fill="#7e8384"><rect x="184" y="270" width="284" height="14"/><rect x="184" y="296" width="412" height="10"/><rect x="184" y="322" width="244" height="8"/><rect x="184" y="398" width="224" height="14"/><rect x="184" y="424" width="456" height="10"/><rect x="184" y="450" width="304" height="8"/><rect x="184" y="526" width="332" height="14"/><rect x="184" y="552" width="390" height="10"/><rect x="184" y="578" width="262" height="8"/></g>
  </g>
  <rect x="734" y="640" width="390" height="34" fill="#181b1f" stroke="#454b51"/>
  <text x="929" y="663" text-anchor="middle" fill="#e8e2d8" font-family="ui-monospace, monospace" font-size="14" letter-spacing="2">PROJECT SCREENSHOT PLACEHOLDER / 02</text>
</svg>
