<svg xmlns="http://www.w3.org/2000/svg" viewBox="0 0 1280 720" aria-hidden="true" focusable="false">
  <defs>
    <pattern id="video04-check" width="40" height="40" patternUnits="userSpaceOnUse">
      <rect width="40" height="40" fill="#1b1e22"/><rect width="20" height="20" fill="#24292e"/><rect x="20" y="20" width="20" height="20" fill="#24292e"/>
    </pattern>
  </defs>
  <rect width="1280" height="720" fill="url(#video04-check)"/>
  <rect x="54" y="54" width="1172" height="612" fill="none" stroke="#596067" stroke-width="2"/>
  <rect x="126" y="122" width="1028" height="390" fill="#191c20" stroke="#e8e2d8" stroke-width="3"/>
  <path d="M126 512 420 246l166 150 184-190 384 306z" fill="#282d32"/>
  <path d="m126 512 294-266 166 150 184-190 384 306" fill="none" stroke="#6ba7ad" stroke-width="10"/>
  <circle cx="770" cy="206" r="24" fill="#ca7165"/>
  <rect x="126" y="548" width="796" height="58" fill="#191c20" stroke="#596067"/>
  <text x="154" y="585" fill="#e8e2d8" font-family="ui-monospace, monospace" font-size="22" letter-spacing="4">VIDEO THUMBNAIL PLACEHOLDER / 04</text>
  <rect x="948" y="548" width="206" height="58" fill="#ca7165"/>
  <path d="m1022 563 46 14-46 14z" fill="#181b1f"/>
  <text x="1126" y="582" text-anchor="end" fill="#181b1f" font-family="ui-monospace, monospace" font-size="14" font-weight="700">REPLACE</text>
</svg>
